<svg xmlns="http://www.w3.org/2000/svg" xmlns:xlink="http://www.w3.org/1999/xlink" width="500" zoomAndPan="magnify" viewBox="0 0 375 374.999991" height="500" preserveAspectRatio="xMidYMid meet" version="1.2"><defs><clipPath id="5d365eda9a"><path d="M 56.289062 192.824219 L 215.289062 192.824219 L 215.289062 231.824219 L 56.289062 231.824219 Z M 56.289062 192.824219 "/></clipPath><clipPath id="71dcbe9222"><path d="M 64 216.058594 L 207.222656 216.058594 L 207.222656 251.308594 L 64 251.308594 Z M 64 216.058594 "/></clipPath><clipPath id="61ddb607f4"><path d="M 76.34375 241.570312 L 194.84375 241.570312 L 194.84375 270.820312 L 76.34375 270.820312 Z M 76.34375 241.570312 "/></clipPath></defs><g id="42277a5987"><rect x="0" width="375" y="0" height="374.999991" style="fill:#ffffff;fill-opacity:1;stroke:none;"/><rect x="0" width="375" y="0" height="374.999991" style="fill:#000000;fill-opacity:1;stroke:none;"/><g clip-rule="nonzero" clip-path="url(#5d365eda9a)"><path style=" stroke:none;fill-rule:nonzero;fill:#ffffff;fill-opacity:1;" d="M 88.320312 192.824219 C 88.214844 192.847656 88.105469 192.867188 87.996094 192.878906 C 84.160156 193.054688 80.40625 193.6875 76.761719 194.917969 C 72.363281 196.394531 68.503906 198.753906 65.183594 201.992188 C 62.882812 204.226562 60.851562 206.6875 58.9375 209.253906 C 58.105469 210.367188 57.292969 211.496094 56.472656 212.617188 L 56.472656 212.695312 C 56.542969 212.78125 56.613281 212.871094 56.6875 212.949219 C 56.816406 213.085938 56.972656 213.152344 57.160156 213.152344 C 57.347656 213.152344 57.503906 213.085938 57.628906 212.949219 C 57.679688 212.890625 57.722656 212.832031 57.765625 212.769531 C 59.097656 210.972656 60.554688 209.28125 62.132812 207.699219 C 63.960938 205.882812 65.90625 204.207031 67.972656 202.667969 C 69.738281 201.308594 71.625 200.148438 73.632812 199.1875 C 77.609375 197.339844 81.804688 196.394531 86.152344 196.0625 C 87.71875 195.945312 89.289062 195.914062 90.859375 195.960938 C 93.269531 196.035156 95.660156 196.28125 98.035156 196.695312 C 100.578125 197.152344 103.089844 197.75 105.5625 198.492188 C 112.394531 200.488281 119.066406 202.925781 125.570312 205.808594 C 131.472656 208.410156 137.195312 211.371094 142.898438 214.375 C 148.167969 217.148438 153.40625 219.972656 158.765625 222.585938 C 161.175781 223.761719 163.601562 224.902344 166.058594 225.984375 C 170.550781 227.964844 175.15625 229.609375 179.949219 230.722656 C 181.582031 231.125 183.230469 231.421875 184.902344 231.617188 C 185.214844 231.648438 185.511719 231.703125 185.820312 231.746094 L 189.582031 231.746094 C 189.925781 231.703125 190.269531 231.648438 190.613281 231.613281 C 193.269531 231.347656 195.851562 230.753906 198.355469 229.828125 C 202.894531 228.1875 206.925781 225.714844 210.445312 222.410156 C 212.164062 220.820312 213.671875 219.050781 214.96875 217.097656 C 214.980469 217.082031 215.007812 217.078125 215.03125 217.066406 L 215.03125 216.535156 C 215.019531 216.535156 215 216.535156 214.996094 216.519531 C 214.625 216.070312 214.238281 216.082031 213.910156 216.5625 C 213.03125 217.839844 212.027344 219.007812 210.898438 220.066406 C 208.777344 222.042969 206.382812 223.601562 203.710938 224.738281 C 200.578125 226.082031 197.3125 226.917969 193.917969 227.246094 C 191.765625 227.472656 189.613281 227.507812 187.457031 227.363281 C 184.863281 227.175781 182.304688 226.761719 179.785156 226.121094 C 176.164062 225.214844 172.675781 223.925781 169.257812 222.441406 C 165.324219 220.726562 161.515625 218.761719 157.722656 216.761719 C 153.21875 214.390625 148.675781 212.097656 144.09375 209.886719 C 135.222656 205.640625 126.15625 201.867188 116.890625 198.570312 C 113.101562 197.21875 109.28125 195.960938 105.378906 194.960938 C 100.96875 193.839844 96.511719 193.054688 91.953125 192.875 C 91.894531 192.863281 91.839844 192.847656 91.785156 192.820312 Z M 88.320312 192.824219 "/></g><g style="fill:#ffffff;fill-opacity:1;"><g transform="translate(24.996097, 194.237786)"><path style="stroke:none" d="M 6.546875 0 L 6.546875 -59.5 L 29.75 -59.5 C 32.9375 -59.5 35.914062 -58.976562 38.6875 -57.9375 C 41.46875 -56.90625 43.710938 -55.265625 45.421875 -53.015625 C 47.128906 -50.773438 47.984375 -47.945312 47.984375 -44.53125 C 47.984375 -41.28125 47.054688 -38.535156 45.203125 -36.296875 C 43.359375 -34.054688 40.835938 -32.460938 37.640625 -31.515625 L 37.640625 -31.34375 C 40.160156 -31.007812 42.382812 -30.238281 44.3125 -29.03125 C 46.25 -27.820312 47.765625 -26.207031 48.859375 -24.1875 C 49.953125 -22.175781 50.5 -19.882812 50.5 -17.3125 C 50.5 -13.21875 49.445312 -9.878906 47.34375 -7.296875 C 45.25 -4.722656 42.503906 -2.863281 39.109375 -1.71875 C 35.722656 -0.570312 32.015625 0 27.984375 0 Z M 26.546875 -35.296875 C 30.078125 -35.296875 32.765625 -35.992188 34.609375 -37.390625 C 36.460938 -38.796875 37.390625 -40.785156 37.390625 -43.359375 C 37.390625 -45.992188 36.4375 -47.882812 34.53125 -49.03125 C 32.632812 -50.175781 29.664062 -50.75 25.625 -50.75 L 17.140625 -50.75 L 17.140625 -35.296875 Z M 26.640625 -8.90625 C 35.492188 -8.90625 39.921875 -11.875 39.921875 -17.8125 C 39.921875 -20.84375 38.882812 -23 36.8125 -24.28125 C 34.738281 -25.570312 31.488281 -26.21875 27.0625 -26.21875 L 17.140625 -26.21875 L 17.140625 -8.90625 Z M 26.640625 -8.90625 "/></g></g><g style="fill:#ffffff;fill-opacity:1;"><g transform="translate(79.359248, 194.237786)"><path style="stroke:none" d="M 25.203125 -59.5 L 34.375 -59.5 L 60 0 L 47.890625 0 L 42.359375 -13.609375 L 16.546875 -13.609375 L 11.171875 0 L -0.671875 0 Z M 29.5 -46.890625 L 20.171875 -22.6875 L 38.65625 -22.6875 Z M 29.5 -46.890625 "/></g></g><g style="fill:#ffffff;fill-opacity:1;"><g transform="translate(138.679774, 194.237786)"><path style="stroke:none" d="M 6.546875 0 L 6.546875 -59.5 L 27.21875 -59.5 C 31.195312 -59.5 34.835938 -58.921875 38.140625 -57.765625 C 41.453125 -56.617188 44.113281 -54.769531 46.125 -52.21875 C 48.144531 -49.675781 49.15625 -46.414062 49.15625 -42.4375 C 49.15625 -38.238281 47.953125 -34.75 45.546875 -31.96875 C 43.140625 -29.195312 39.804688 -27.335938 35.546875 -26.390625 L 51.421875 0 L 38.65625 0 L 24.875 -25.203125 L 17.140625 -25.203125 L 17.140625 0 Z M 25.796875 -33.859375 C 29.441406 -33.859375 32.484375 -34.488281 34.921875 -35.75 C 37.359375 -37.007812 38.578125 -39.265625 38.578125 -42.515625 C 38.578125 -45.429688 37.425781 -47.503906 35.125 -48.734375 C 32.832031 -49.972656 30.03125 -50.59375 26.71875 -50.59375 L 17.140625 -50.59375 L 17.140625 -33.859375 Z M 25.796875 -33.859375 "/></g></g><g style="fill:#ffffff;fill-opacity:1;"><g transform="translate(191.530498, 194.237786)"><path style="stroke:none" d="M 6.546875 0 L 6.546875 -59.5 L 29.75 -59.5 C 32.9375 -59.5 35.914062 -58.976562 38.6875 -57.9375 C 41.46875 -56.90625 43.710938 -55.265625 45.421875 -53.015625 C 47.128906 -50.773438 47.984375 -47.945312 47.984375 -44.53125 C 47.984375 -41.28125 47.054688 -38.535156 45.203125 -36.296875 C 43.359375 -34.054688 40.835938 -32.460938 37.640625 -31.515625 L 37.640625 -31.34375 C 40.160156 -31.007812 42.382812 -30.238281 44.3125 -29.03125 C 46.25 -27.820312 47.765625 -26.207031 48.859375 -24.1875 C 49.953125 -22.175781 50.5 -19.882812 50.5 -17.3125 C 50.5 -13.21875 49.445312 -9.878906 47.34375 -7.296875 C 45.25 -4.722656 42.503906 -2.863281 39.109375 -1.71875 C 35.722656 -0.570312 32.015625 0 27.984375 0 Z M 26.546875 -35.296875 C 30.078125 -35.296875 32.765625 -35.992188 34.609375 -37.390625 C 36.460938 -38.796875 37.390625 -40.785156 37.390625 -43.359375 C 37.390625 -45.992188 36.4375 -47.882812 34.53125 -49.03125 C 32.632812 -50.175781 29.664062 -50.75 25.625 -50.75 L 17.140625 -50.75 L 17.140625 -35.296875 Z M 26.640625 -8.90625 C 35.492188 -8.90625 39.921875 -11.875 39.921875 -17.8125 C 39.921875 -20.84375 38.882812 -23 36.8125 -24.28125 C 34.738281 -25.570312 31.488281 -26.21875 27.0625 -26.21875 L 17.140625 -26.21875 L 17.140625 -8.90625 Z M 26.640625 -8.90625 "/></g></g><g style="fill:#ffffff;fill-opacity:1;"><g transform="translate(245.89365, 194.237786)"><path style="stroke:none" d="M 47.484375 0 L 6.546875 0 L 6.546875 -59.5 L 45.96875 -59.5 L 45.96875 -50.25 L 17.140625 -50.25 L 17.140625 -35.125 L 44.453125 -35.125 L 44.453125 -26.21875 L 17.140625 -26.21875 L 17.140625 -9.40625 L 47.484375 -9.40625 Z M 47.484375 0 "/></g></g><g style="fill:#ffffff;fill-opacity:1;"><g transform="translate(297.147934, 194.237786)"><path style="stroke:none" d="M 6.546875 0 L 6.546875 -59.5 L 27.21875 -59.5 C 31.195312 -59.5 34.835938 -58.921875 38.140625 -57.765625 C 41.453125 -56.617188 44.113281 -54.769531 46.125 -52.21875 C 48.144531 -49.675781 49.15625 -46.414062 49.15625 -42.4375 C 49.15625 -38.238281 47.953125 -34.75 45.546875 -31.96875 C 43.140625 -29.195312 39.804688 -27.335938 35.546875 -26.390625 L 51.421875 0 L 38.65625 0 L 24.875 -25.203125 L 17.140625 -25.203125 L 17.140625 0 Z M 25.796875 -33.859375 C 29.441406 -33.859375 32.484375 -34.488281 34.921875 -35.75 C 37.359375 -37.007812 38.578125 -39.265625 38.578125 -42.515625 C 38.578125 -45.429688 37.425781 -47.503906 35.125 -48.734375 C 32.832031 -49.972656 30.03125 -50.59375 26.71875 -50.59375 L 17.140625 -50.59375 L 17.140625 -33.859375 Z M 25.796875 -33.859375 "/></g></g><g style="fill:#ffffff;fill-opacity:1;"><g transform="translate(215.235415, 263.982902)"><path style="stroke:none" d="M -0.5 0.1875 C -0.582031 0.0625 -0.625 -0.132812 -0.625 -0.40625 C -0.625 -0.851562 -0.519531 -1.53125 -0.3125 -2.4375 C 0.0195312 -3.9375 0.601562 -6.238281 1.4375 -9.34375 C 1.832031 -10.75 2.179688 -12.023438 2.484375 -13.171875 C 2.785156 -14.316406 2.953125 -14.976562 2.984375 -15.15625 C 3.003906 -15.300781 3.046875 -15.539062 3.109375 -15.875 C 2.960938 -15.84375 2.722656 -15.8125 2.390625 -15.78125 C 1.972656 -15.726562 1.613281 -15.804688 1.3125 -16.015625 C 1.039062 -16.222656 0.90625 -16.507812 0.90625 -16.875 C 0.90625 -17.195312 1.054688 -17.476562 1.359375 -17.71875 C 1.628906 -17.96875 2.019531 -18.117188 2.53125 -18.171875 C 2.769531 -18.203125 3.007812 -18.265625 3.25 -18.359375 C 3.488281 -18.421875 3.640625 -18.476562 3.703125 -18.53125 C 3.753906 -18.59375 3.929688 -19.078125 4.234375 -19.984375 C 4.503906 -20.878906 4.804688 -21.898438 5.140625 -23.046875 C 5.535156 -24.492188 5.910156 -25.878906 6.265625 -27.203125 C 6.628906 -28.523438 6.8125 -29.289062 6.8125 -29.5 C 6.8125 -29.675781 6.628906 -29.722656 6.265625 -29.640625 C 5.878906 -29.578125 4.976562 -29.304688 3.5625 -28.828125 C 2.363281 -28.429688 1.582031 -28.1875 1.21875 -28.09375 C 0.851562 -28.039062 0.566406 -28.054688 0.359375 -28.140625 C 0.0859375 -28.296875 -0.09375 -28.523438 -0.1875 -28.828125 C -0.269531 -29.117188 -0.238281 -29.398438 -0.09375 -29.671875 C 0.03125 -29.921875 0.515625 -30.207031 1.359375 -30.53125 C 2.191406 -30.894531 3.4375 -31.316406 5.09375 -31.796875 C 5.726562 -31.972656 6.285156 -32.140625 6.765625 -32.296875 C 7.273438 -32.441406 7.546875 -32.53125 7.578125 -32.5625 C 7.640625 -32.59375 7.710938 -32.757812 7.796875 -33.0625 C 7.890625 -33.363281 7.984375 -33.691406 8.078125 -34.046875 C 8.285156 -34.859375 8.476562 -35.390625 8.65625 -35.640625 C 8.863281 -35.898438 9.164062 -36.03125 9.5625 -36.03125 C 10.007812 -36.03125 10.328125 -35.867188 10.515625 -35.546875 C 10.691406 -35.210938 10.703125 -34.773438 10.546875 -34.234375 C 10.492188 -34.023438 10.453125 -33.828125 10.421875 -33.640625 C 10.390625 -33.460938 10.390625 -33.359375 10.421875 -33.328125 C 10.453125 -33.328125 10.660156 -33.359375 11.046875 -33.421875 C 11.472656 -33.515625 11.972656 -33.617188 12.546875 -33.734375 C 15.097656 -34.335938 17.769531 -34.804688 20.5625 -35.140625 C 23.363281 -35.472656 26.390625 -35.679688 29.640625 -35.765625 C 31.742188 -35.828125 33.050781 -35.84375 33.5625 -35.8125 C 34.070312 -35.78125 34.414062 -35.691406 34.59375 -35.546875 C 34.832031 -35.304688 34.953125 -35.035156 34.953125 -34.734375 C 34.953125 -34.429688 34.816406 -34.160156 34.546875 -33.921875 C 34.367188 -33.765625 34.023438 -33.660156 33.515625 -33.609375 C 33.003906 -33.546875 31.785156 -33.484375 29.859375 -33.421875 C 28.660156 -33.390625 27.519531 -33.34375 26.4375 -33.28125 C 25.351562 -33.257812 24.644531 -33.234375 24.3125 -33.203125 C 21.8125 -32.929688 19.628906 -32.644531 17.765625 -32.34375 C 15.929688 -32.070312 14.097656 -31.707031 12.265625 -31.25 C 11.210938 -31.007812 10.519531 -30.832031 10.1875 -30.71875 C 9.832031 -30.5625 9.625 -30.410156 9.5625 -30.265625 C 9.46875 -30.054688 9.285156 -29.46875 9.015625 -28.5 C 8.742188 -27.507812 8.457031 -26.414062 8.15625 -25.21875 C 7.769531 -23.769531 7.425781 -22.398438 7.125 -21.109375 C 6.789062 -19.847656 6.640625 -19.203125 6.671875 -19.171875 C 6.703125 -19.140625 6.988281 -19.140625 7.53125 -19.171875 C 8.039062 -19.234375 8.65625 -19.289062 9.375 -19.34375 C 11 -19.5625 12.382812 -19.671875 13.53125 -19.671875 C 14.675781 -19.671875 15.304688 -19.59375 15.421875 -19.4375 C 15.628906 -19.164062 15.75 -18.894531 15.78125 -18.625 C 15.78125 -18.351562 15.691406 -18.113281 15.515625 -17.90625 C 15.335938 -17.695312 15.097656 -17.5625 14.796875 -17.5 C 14.492188 -17.4375 13.800781 -17.363281 12.71875 -17.28125 C 11.125 -17.1875 9.617188 -17.035156 8.203125 -16.828125 C 6.796875 -16.617188 6.03125 -16.4375 5.90625 -16.28125 C 5.84375 -16.21875 5.722656 -15.875 5.546875 -15.25 C 5.335938 -14.644531 5.144531 -13.953125 4.96875 -13.171875 C 4.71875 -12.296875 4.457031 -11.347656 4.1875 -10.328125 C 3.945312 -9.335938 3.691406 -8.332031 3.421875 -7.3125 C 2.910156 -5.445312 2.445312 -3.789062 2.03125 -2.34375 C 1.601562 -0.875 1.347656 -0.0625 1.265625 0.09375 C 1.085938 0.394531 0.800781 0.546875 0.40625 0.546875 L 0.359375 0.546875 C 0.0234375 0.546875 -0.257812 0.425781 -0.5 0.1875 Z M -0.5 0.1875 "/></g></g><g style="fill:#ffffff;fill-opacity:1;"><g transform="translate(238.32721, 263.982902)"><path style="stroke:none" d="M 2.4375 0.3125 C 0.570312 -0.613281 -0.507812 -2.382812 -0.8125 -5 C -0.875 -5.539062 -0.90625 -6.113281 -0.90625 -6.71875 C -0.90625 -9.09375 -0.421875 -12.070312 0.546875 -15.65625 C 1.140625 -17.820312 1.875 -20.0625 2.75 -22.375 C 3.625 -24.6875 4.8125 -27.601562 6.3125 -31.125 C 7.125 -32.957031 7.710938 -34.113281 8.078125 -34.59375 C 8.347656 -34.925781 8.632812 -35.09375 8.9375 -35.09375 C 9.050781 -35.09375 9.171875 -35.0625 9.296875 -35 C 9.773438 -34.789062 9.953125 -34.382812 9.828125 -33.78125 C 9.710938 -33.207031 9.15625 -31.75 8.15625 -29.40625 C 6.59375 -25.738281 5.394531 -22.765625 4.5625 -20.484375 C 3.71875 -18.160156 3.039062 -15.992188 2.53125 -13.984375 C 2.019531 -11.878906 1.6875 -9.894531 1.53125 -8.03125 C 1.414062 -6.195312 1.503906 -4.8125 1.796875 -3.875 C 2.160156 -2.789062 2.78125 -2.113281 3.65625 -1.84375 C 4.53125 -1.539062 5.671875 -1.632812 7.078125 -2.125 C 7.921875 -2.425781 8.765625 -2.875 9.609375 -3.46875 C 10.453125 -4.101562 11.265625 -4.8125 12.046875 -5.59375 C 13.484375 -7.007812 14.773438 -8.453125 15.921875 -9.921875 C 17.066406 -11.367188 17.863281 -12.253906 18.3125 -12.578125 C 18.789062 -12.847656 19.300781 -12.789062 19.84375 -12.40625 C 20.050781 -12.226562 20.15625 -11.988281 20.15625 -11.6875 C 20.15625 -11.289062 19.945312 -10.75 19.53125 -10.0625 C 19.257812 -9.695312 18.882812 -9.195312 18.40625 -8.5625 C 17.925781 -7.9375 17.351562 -7.25 16.6875 -6.5 C 15.488281 -5.113281 14.03125 -3.710938 12.3125 -2.296875 C 10.601562 -0.910156 8.769531 0.0195312 6.8125 0.5 C 6.207031 0.613281 5.5625 0.671875 4.875 0.671875 L 4.421875 0.671875 C 3.546875 0.640625 2.882812 0.519531 2.4375 0.3125 Z M 2.4375 0.3125 "/></g></g><g style="fill:#ffffff;fill-opacity:1;"><g transform="translate(256.773586, 263.982902)"><path style="stroke:none" d="M 3.78125 -0.265625 L 3.0625 -0.625 C 2.820312 -0.78125 2.660156 -0.90625 2.578125 -1 C 2.117188 -1.414062 1.710938 -2.132812 1.359375 -3.15625 C 1.023438 -4.175781 0.859375 -5.171875 0.859375 -6.140625 C 0.859375 -7.578125 1.1875 -9.394531 1.84375 -11.59375 C 2.507812 -13.820312 3.367188 -16.03125 4.421875 -18.21875 C 5.234375 -19.84375 5.816406 -20.941406 6.171875 -21.515625 C 6.566406 -22.054688 6.914062 -22.328125 7.21875 -22.328125 C 7.519531 -22.328125 7.773438 -22.207031 7.984375 -21.96875 C 8.222656 -21.726562 8.34375 -21.457031 8.34375 -21.15625 C 8.34375 -21.03125 8.207031 -20.671875 7.9375 -20.078125 C 7.664062 -19.472656 7.347656 -18.796875 6.984375 -18.046875 C 5.722656 -15.546875 4.804688 -13.347656 4.234375 -11.453125 C 3.640625 -9.554688 3.34375 -7.828125 3.34375 -6.265625 C 3.34375 -5.484375 3.359375 -4.914062 3.390625 -4.5625 C 3.441406 -4.164062 3.546875 -3.816406 3.703125 -3.515625 C 4.359375 -2.160156 5.617188 -1.875 7.484375 -2.65625 C 9.378906 -3.46875 11.332031 -4.972656 13.34375 -7.171875 C 14.457031 -8.347656 15.515625 -9.671875 16.515625 -11.140625 C 17.535156 -12.609375 18.453125 -14.171875 19.265625 -15.828125 C 20.796875 -19.015625 21.738281 -21.859375 22.09375 -24.359375 C 22.457031 -26.847656 22.21875 -28.921875 21.375 -30.578125 C 20.925781 -31.484375 20.34375 -32.101562 19.625 -32.4375 C 18.894531 -32.757812 17.992188 -32.800781 16.921875 -32.5625 C 15.503906 -32.289062 13.96875 -31.554688 12.3125 -30.359375 C 10.625 -29.179688 9.09375 -27.738281 7.71875 -26.03125 C 6.0625 -24.039062 4.75 -22.007812 3.78125 -19.9375 C 2.789062 -17.832031 2.070312 -15.515625 1.625 -12.984375 C 1.414062 -11.847656 1.21875 -11.113281 1.03125 -10.78125 C 0.851562 -10.445312 0.554688 -10.28125 0.140625 -10.28125 C -0.128906 -10.28125 -0.375 -10.414062 -0.59375 -10.6875 C -0.800781 -10.957031 -0.90625 -11.273438 -0.90625 -11.640625 C -0.90625 -12.179688 -0.753906 -13.1875 -0.453125 -14.65625 C -0.117188 -16.101562 0.195312 -17.257812 0.5 -18.125 C 1.394531 -20.6875 2.65625 -23.125 4.28125 -25.4375 C 5.90625 -27.75 7.695312 -29.703125 9.65625 -31.296875 C 10.675781 -32.171875 11.742188 -32.910156 12.859375 -33.515625 C 13.941406 -34.117188 15.007812 -34.554688 16.0625 -34.828125 C 16.8125 -35.035156 17.515625 -35.140625 18.171875 -35.140625 C 19.953125 -35.140625 21.441406 -34.429688 22.640625 -33.015625 C 23.960938 -31.453125 24.625 -29.378906 24.625 -26.796875 C 24.625 -26.160156 24.578125 -25.5 24.484375 -24.8125 C 24.242188 -22.675781 23.734375 -20.523438 22.953125 -18.359375 C 22.140625 -16.191406 21.015625 -13.890625 19.578125 -11.453125 C 18.859375 -10.222656 18.015625 -9.003906 17.046875 -7.796875 C 16.085938 -6.597656 15.035156 -5.457031 13.890625 -4.375 C 11.910156 -2.445312 10.0625 -1.140625 8.34375 -0.453125 C 7.382812 -0.0546875 6.5 0.140625 5.6875 0.140625 C 5.019531 0.140625 4.382812 0.00390625 3.78125 -0.265625 Z M 3.78125 -0.265625 "/></g></g><g style="fill:#ffffff;fill-opacity:1;"><g transform="translate(282.661654, 263.982902)"><path style="stroke:none" d="M 2.796875 -0.1875 C 2.460938 -0.269531 2.070312 -0.523438 1.625 -0.953125 C 1.175781 -1.335938 0.84375 -1.726562 0.625 -2.125 C 0.207031 -2.988281 0 -4.160156 0 -5.640625 C 0 -7.140625 0.238281 -8.789062 0.71875 -10.59375 C 1.082031 -12.039062 1.535156 -13.472656 2.078125 -14.890625 C 2.585938 -16.296875 3.320312 -18.035156 4.28125 -20.109375 C 4.738281 -21.046875 5.101562 -21.84375 5.375 -22.5 C 5.664062 -23.164062 5.800781 -23.515625 5.78125 -23.546875 C 5.78125 -23.578125 5.628906 -23.441406 5.328125 -23.140625 C 5.023438 -22.835938 4.675781 -22.460938 4.28125 -22.015625 C 3.53125 -21.203125 2.988281 -20.703125 2.65625 -20.515625 C 2.300781 -20.367188 1.972656 -20.460938 1.671875 -20.796875 C 1.273438 -21.242188 1.210938 -21.722656 1.484375 -22.234375 C 1.785156 -22.742188 2.644531 -23.753906 4.0625 -25.265625 C 5.320312 -26.554688 6.285156 -27.363281 6.953125 -27.6875 C 7.609375 -28.050781 8.207031 -28.039062 8.75 -27.65625 C 9.289062 -27.289062 9.441406 -26.640625 9.203125 -25.703125 C 8.992188 -24.742188 8.242188 -22.894531 6.953125 -20.15625 C 5.773438 -17.632812 4.929688 -15.710938 4.421875 -14.390625 C 3.910156 -13.035156 3.472656 -11.679688 3.109375 -10.328125 C 2.753906 -8.941406 2.53125 -7.753906 2.4375 -6.765625 C 2.3125 -5.804688 2.328125 -4.960938 2.484375 -4.234375 C 2.691406 -3.335938 3.019531 -2.785156 3.46875 -2.578125 C 3.945312 -2.359375 4.625 -2.460938 5.5 -2.890625 C 7.007812 -3.609375 8.859375 -5.578125 11.046875 -8.796875 C 13.210938 -12.015625 15.800781 -16.582031 18.8125 -22.5 C 19.863281 -24.550781 20.566406 -25.769531 20.921875 -26.15625 C 21.285156 -26.550781 21.691406 -26.566406 22.140625 -26.203125 C 22.296875 -26.117188 22.429688 -25.984375 22.546875 -25.796875 C 22.671875 -25.648438 22.75 -25.515625 22.78125 -25.390625 C 22.78125 -25.273438 22.71875 -25.003906 22.59375 -24.578125 C 22.476562 -24.128906 22.3125 -23.648438 22.09375 -23.140625 C 21.644531 -21.929688 21.253906 -20.726562 20.921875 -19.53125 C 20.566406 -18.320312 20.296875 -17.148438 20.109375 -16.015625 C 19.722656 -13.941406 19.585938 -12.132812 19.703125 -10.59375 C 19.828125 -9.03125 20.207031 -8.023438 20.84375 -7.578125 C 21.925781 -6.828125 23.320312 -7.234375 25.03125 -8.796875 C 26.78125 -10.328125 28.359375 -12.375 29.765625 -14.9375 C 30.546875 -16.28125 31.222656 -17.707031 31.796875 -19.21875 C 32.367188 -20.75 32.757812 -22.238281 32.96875 -23.6875 C 33.269531 -25.664062 33.210938 -27.617188 32.796875 -29.546875 C 32.335938 -31.472656 31.566406 -33.1875 30.484375 -34.6875 C 30.128906 -35.164062 29.9375 -35.539062 29.90625 -35.8125 C 29.90625 -36.082031 30.023438 -36.351562 30.265625 -36.625 C 30.503906 -36.863281 30.757812 -36.96875 31.03125 -36.9375 C 31.300781 -36.9375 31.570312 -36.832031 31.84375 -36.625 C 32.382812 -36.175781 33.015625 -35.226562 33.734375 -33.78125 C 34.398438 -32.394531 34.851562 -31.175781 35.09375 -30.125 C 35.332031 -29.070312 35.46875 -27.722656 35.5 -26.078125 C 35.5 -24.566406 35.394531 -23.285156 35.1875 -22.234375 C 35 -21.179688 34.609375 -19.90625 34.015625 -18.40625 C 32.503906 -14.46875 30.609375 -11.234375 28.328125 -8.703125 C 26.066406 -6.179688 23.914062 -4.90625 21.875 -4.875 C 21.21875 -4.875 20.691406 -4.960938 20.296875 -5.140625 C 19.898438 -5.296875 19.460938 -5.597656 18.984375 -6.046875 C 18.410156 -6.617188 18.003906 -7.296875 17.765625 -8.078125 C 17.523438 -8.859375 17.378906 -10.046875 17.328125 -11.640625 C 17.328125 -12.242188 17.296875 -13.144531 17.234375 -14.34375 C 16.929688 -13.800781 16.460938 -12.988281 15.828125 -11.90625 C 13.878906 -8.570312 12.132812 -6 10.59375 -4.1875 C 9.0625 -2.382812 7.5625 -1.15625 6.09375 -0.5 C 5.613281 -0.289062 5.039062 -0.15625 4.375 -0.09375 C 4.164062 -0.0625 3.957031 -0.046875 3.75 -0.046875 C 3.382812 -0.046875 3.066406 -0.09375 2.796875 -0.1875 Z M 2.796875 -0.1875 "/></g></g><g clip-rule="nonzero" clip-path="url(#71dcbe9222)"><path style=" stroke:none;fill-rule:nonzero;fill:#ffffff;fill-opacity:1;" d="M 92.839844 216.058594 C 92.742188 216.082031 92.648438 216.097656 92.550781 216.109375 C 89.089844 216.269531 85.707031 216.835938 82.417969 217.945312 C 78.457031 219.277344 74.976562 221.402344 71.984375 224.324219 C 69.90625 226.335938 68.078125 228.558594 66.351562 230.867188 C 65.601562 231.871094 64.871094 232.890625 64.132812 233.902344 L 64.132812 233.972656 C 64.195312 234.046875 64.257812 234.128906 64.324219 234.203125 C 64.441406 234.324219 64.582031 234.386719 64.75 234.386719 C 64.917969 234.386719 65.058594 234.324219 65.175781 234.203125 C 65.21875 234.148438 65.257812 234.09375 65.296875 234.039062 C 66.496094 232.417969 67.808594 230.894531 69.234375 229.46875 C 70.882812 227.832031 72.636719 226.320312 74.496094 224.933594 C 76.089844 223.707031 77.789062 222.660156 79.601562 221.796875 C 83.183594 220.132812 86.964844 219.277344 90.886719 218.976562 C 92.296875 218.875 93.710938 218.84375 95.128906 218.886719 C 97.300781 218.953125 99.457031 219.175781 101.597656 219.550781 C 103.890625 219.960938 106.152344 220.5 108.382812 221.167969 C 114.542969 222.96875 120.554688 225.167969 126.421875 227.765625 C 131.738281 230.109375 136.898438 232.78125 142.039062 235.484375 C 146.789062 237.988281 151.511719 240.535156 156.339844 242.886719 C 158.515625 243.949219 160.703125 244.976562 162.917969 245.953125 C 166.964844 247.738281 171.117188 249.21875 175.441406 250.222656 C 176.910156 250.585938 178.398438 250.855469 179.902344 251.027344 C 180.1875 251.054688 180.453125 251.109375 180.730469 251.148438 L 184.125 251.148438 C 184.433594 251.105469 184.742188 251.054688 185.054688 251.027344 C 187.449219 250.785156 189.773438 250.25 192.03125 249.417969 C 196.125 247.9375 199.757812 245.710938 202.929688 242.730469 C 204.480469 241.296875 205.839844 239.699219 207.007812 237.941406 C 207.019531 237.929688 207.042969 237.921875 207.0625 237.914062 L 207.0625 237.433594 C 207.050781 237.433594 207.039062 237.433594 207.03125 237.421875 C 206.699219 237.015625 206.347656 237.023438 206.050781 237.457031 C 205.261719 238.609375 204.359375 239.660156 203.339844 240.617188 C 201.425781 242.398438 199.265625 243.804688 196.859375 244.828125 C 194.035156 246.039062 191.089844 246.792969 188.03125 247.089844 C 186.09375 247.292969 184.152344 247.328125 182.207031 247.195312 C 179.871094 247.023438 177.5625 246.652344 175.292969 246.074219 C 172.027344 245.257812 168.882812 244.09375 165.800781 242.757812 C 162.257812 241.214844 158.824219 239.441406 155.40625 237.636719 C 151.34375 235.5 147.25 233.433594 143.117188 231.441406 C 135.121094 227.613281 126.945312 224.210938 118.59375 221.238281 C 115.179688 220.019531 111.734375 218.886719 108.21875 217.988281 C 104.242188 216.972656 100.222656 216.265625 96.117188 216.105469 C 96.0625 216.097656 96.011719 216.078125 95.964844 216.054688 Z M 92.839844 216.058594 "/></g><g clip-rule="nonzero" clip-path="url(#61ddb607f4)"><path style=" stroke:none;fill-rule:nonzero;fill:#ffffff;fill-opacity:1;" d="M 100.222656 241.570312 C 100.140625 241.589844 100.0625 241.601562 99.980469 241.613281 C 97.117188 241.742188 94.320312 242.214844 91.601562 243.132812 C 88.320312 244.234375 85.445312 245.992188 82.96875 248.40625 C 81.25 250.074219 79.734375 251.910156 78.308594 253.820312 C 77.6875 254.652344 77.082031 255.496094 76.472656 256.332031 L 76.472656 256.386719 C 76.523438 256.453125 76.574219 256.519531 76.632812 256.578125 C 76.726562 256.679688 76.84375 256.730469 76.984375 256.730469 C 77.121094 256.730469 77.238281 256.679688 77.332031 256.578125 C 77.371094 256.535156 77.402344 256.492188 77.433594 256.445312 C 78.425781 255.105469 79.515625 253.84375 80.691406 252.664062 C 82.054688 251.308594 83.507812 250.058594 85.046875 248.910156 C 86.363281 247.898438 87.769531 247.03125 89.269531 246.316406 C 92.230469 244.9375 95.359375 244.234375 98.605469 243.984375 C 99.773438 243.898438 100.941406 243.875 102.113281 243.910156 C 103.910156 243.964844 105.695312 244.148438 107.464844 244.457031 C 109.363281 244.796875 111.234375 245.242188 113.082031 245.796875 C 118.175781 247.285156 123.148438 249.105469 128 251.253906 C 132.402344 253.195312 136.667969 255.402344 140.921875 257.640625 C 144.851562 259.710938 148.761719 261.816406 152.753906 263.765625 C 154.550781 264.640625 156.363281 265.496094 158.195312 266.300781 C 161.542969 267.777344 164.976562 269.003906 168.554688 269.832031 C 169.769531 270.132812 171 270.355469 172.246094 270.5 C 172.480469 270.523438 172.703125 270.566406 172.929688 270.597656 L 175.738281 270.597656 C 175.992188 270.5625 176.25 270.523438 176.507812 270.496094 C 178.488281 270.300781 180.410156 269.855469 182.277344 269.167969 C 185.664062 267.945312 188.671875 266.097656 191.292969 263.632812 C 192.578125 262.449219 193.703125 261.128906 194.667969 259.675781 C 194.675781 259.664062 194.699219 259.65625 194.714844 259.648438 L 194.714844 259.25 C 194.707031 259.25 194.695312 259.25 194.6875 259.242188 C 194.414062 258.90625 194.125 258.914062 193.878906 259.273438 C 193.226562 260.226562 192.476562 261.097656 191.632812 261.886719 C 190.050781 263.359375 188.265625 264.523438 186.273438 265.367188 C 183.9375 266.371094 181.5 266.996094 178.96875 267.242188 C 177.367188 267.410156 175.761719 267.4375 174.152344 267.328125 C 172.21875 267.1875 170.3125 266.878906 168.429688 266.402344 C 165.730469 265.726562 163.128906 264.761719 160.582031 263.65625 C 157.648438 262.378906 154.808594 260.914062 151.980469 259.421875 C 148.621094 257.652344 145.230469 255.945312 141.8125 254.296875 C 135.199219 251.128906 128.4375 248.3125 121.527344 245.855469 C 118.703125 244.847656 115.851562 243.910156 112.941406 243.164062 C 109.65625 242.328125 106.328125 241.742188 102.929688 241.609375 C 102.886719 241.601562 102.84375 241.585938 102.804688 241.566406 Z M 100.222656 241.570312 "/></g></g></svg>