<svg xmlns="http://www.w3.org/2000/svg" xmlns:xlink="http://www.w3.org/1999/xlink" width="500" zoomAndPan="magnify" viewBox="0 0 375 374.999991" height="500" preserveAspectRatio="xMidYMid meet" version="1.2"><defs><clipPath id="36c48c6b7e"><path d="M 43.984375 119.121094 L 337 119.121094 L 337 127 L 43.984375 127 Z M 43.984375 119.121094 "/></clipPath><clipPath id="82c4d69205"><path d="M 43.984375 126 L 337 126 L 337 134.121094 L 43.984375 134.121094 Z M 43.984375 126 "/></clipPath><clipPath id="30b4394be8"><path d="M 44.246094 204.976562 L 117.484375 204.976562 L 117.484375 210.976562 L 44.246094 210.976562 Z M 44.246094 204.976562 "/></clipPath><clipPath id="9f09b848c9"><path d="M 264.207031 204.976562 L 337 204.976562 L 337 210.976562 L 264.207031 210.976562 Z M 264.207031 204.976562 "/></clipPath></defs><g id="0f44da0d84"><rect x="0" width="375" y="0" height="374.999991" style="fill:#ffffff;fill-opacity:1;stroke:none;"/><rect x="0" width="375" y="0" height="374.999991" style="fill:#000000;fill-opacity:1;stroke:none;"/><g clip-rule="nonzero" clip-path="url(#36c48c6b7e)"><path style=" stroke:none;fill-rule:nonzero;fill:#ffffff;fill-opacity:1;" d="M 43.984375 119.144531 L 336.808594 119.144531 L 336.808594 126.621094 L 43.984375 126.621094 Z M 43.984375 119.144531 "/></g><g clip-rule="nonzero" clip-path="url(#82c4d69205)"><path style=" stroke:none;fill-rule:nonzero;fill:#000000;fill-opacity:1;" d="M 43.984375 126.621094 L 336.808594 126.621094 L 336.808594 134.097656 L 43.984375 134.097656 Z M 43.984375 126.621094 "/></g><g style="fill:#ffffff;fill-opacity:1;"><g transform="translate(44.006386, 196.298076)"><path style="stroke:none" d="M 34.46875 -29 C 36.957031 -28.59375 39.15625 -27.785156 41.0625 -26.578125 C 42.976562 -25.378906 44.476562 -23.84375 45.5625 -21.96875 C 46.65625 -20.09375 47.203125 -17.914062 47.203125 -15.4375 C 47.203125 -10.5 45.390625 -6.691406 41.765625 -4.015625 C 38.148438 -1.335938 32.800781 0 25.71875 0 L 7.71875 0 L 7.71875 -55.8125 L 25.203125 -55.8125 C 31.484375 -55.8125 36.320312 -54.570312 39.71875 -52.09375 C 43.125 -49.625 44.828125 -46.09375 44.828125 -41.5 C 44.828125 -38.414062 43.925781 -35.753906 42.125 -33.515625 C 40.332031 -31.285156 37.78125 -29.78125 34.46875 -29 Z M 25.671875 -49.40625 L 14.9375 -49.40625 L 14.9375 -32 L 25.984375 -32 C 29.804688 -32 32.660156 -32.804688 34.546875 -34.421875 C 36.441406 -36.035156 37.390625 -38.171875 37.390625 -40.828125 C 37.390625 -43.421875 36.4375 -45.5 34.53125 -47.0625 C 32.632812 -48.625 29.679688 -49.40625 25.671875 -49.40625 Z M 14.9375 -6.40625 L 26.609375 -6.40625 C 29.648438 -6.40625 32.109375 -6.800781 33.984375 -7.59375 C 35.859375 -8.394531 37.234375 -9.515625 38.109375 -10.953125 C 38.992188 -12.390625 39.4375 -14.050781 39.4375 -15.9375 C 39.4375 -18.882812 38.347656 -21.203125 36.171875 -22.890625 C 34.003906 -24.585938 30.738281 -25.4375 26.375 -25.4375 L 14.9375 -25.4375 Z M 14.9375 -6.40625 "/></g></g><g style="fill:#ffffff;fill-opacity:1;"><g transform="translate(92.517374, 196.298076)"><path style="stroke:none" d="M 51.3125 0 L 43.625 0 L 38 -15.46875 L 14.734375 -15.46875 L 9.078125 0 L 1.390625 0 L 22.640625 -55.8125 L 29.9375 -55.8125 Z M 26.40625 -47.265625 L 16.875 -21.21875 L 35.90625 -21.21875 Z M 26.40625 -47.265625 "/></g></g><g style="fill:#ffffff;fill-opacity:1;"><g transform="translate(145.255172, 196.298076)"><path style="stroke:none" d="M 29.078125 -22.1875 L 45.953125 0 L 37.546875 0 L 18 -26.40625 L 22.875 -26.40625 C 25.664062 -26.40625 28.128906 -26.882812 30.265625 -27.84375 C 32.398438 -28.800781 34.066406 -30.128906 35.265625 -31.828125 C 36.472656 -33.535156 37.078125 -35.515625 37.078125 -37.765625 C 37.078125 -40.046875 36.492188 -42.035156 35.328125 -43.734375 C 34.160156 -45.441406 32.535156 -46.773438 30.453125 -47.734375 C 28.378906 -48.691406 25.929688 -49.171875 23.109375 -49.171875 L 15.046875 -49.171875 L 15.046875 0 L 7.71875 0 L 7.71875 -55.8125 L 23.109375 -55.8125 C 26.421875 -55.8125 29.414062 -55.359375 32.09375 -54.453125 C 34.769531 -53.546875 37.054688 -52.273438 38.953125 -50.640625 C 40.859375 -49.015625 42.320312 -47.109375 43.34375 -44.921875 C 44.363281 -42.742188 44.875 -40.359375 44.875 -37.765625 C 44.875 -35.773438 44.488281 -33.890625 43.71875 -32.109375 C 42.957031 -30.328125 41.878906 -28.738281 40.484375 -27.34375 C 39.085938 -25.945312 37.425781 -24.796875 35.5 -23.890625 C 33.570312 -22.984375 31.429688 -22.414062 29.078125 -22.1875 Z M 29.078125 -22.1875 "/></g></g><g style="fill:#ffffff;fill-opacity:1;"><g transform="translate(193.533532, 196.298076)"><path style="stroke:none" d="M 34.46875 -29 C 36.957031 -28.59375 39.15625 -27.785156 41.0625 -26.578125 C 42.976562 -25.378906 44.476562 -23.84375 45.5625 -21.96875 C 46.65625 -20.09375 47.203125 -17.914062 47.203125 -15.4375 C 47.203125 -10.5 45.390625 -6.691406 41.765625 -4.015625 C 38.148438 -1.335938 32.800781 0 25.71875 0 L 7.71875 0 L 7.71875 -55.8125 L 25.203125 -55.8125 C 31.484375 -55.8125 36.320312 -54.570312 39.71875 -52.09375 C 43.125 -49.625 44.828125 -46.09375 44.828125 -41.5 C 44.828125 -38.414062 43.925781 -35.753906 42.125 -33.515625 C 40.332031 -31.285156 37.78125 -29.78125 34.46875 -29 Z M 25.671875 -49.40625 L 14.9375 -49.40625 L 14.9375 -32 L 25.984375 -32 C 29.804688 -32 32.660156 -32.804688 34.546875 -34.421875 C 36.441406 -36.035156 37.390625 -38.171875 37.390625 -40.828125 C 37.390625 -43.421875 36.4375 -45.5 34.53125 -47.0625 C 32.632812 -48.625 29.679688 -49.40625 25.671875 -49.40625 Z M 14.9375 -6.40625 L 26.609375 -6.40625 C 29.648438 -6.40625 32.109375 -6.800781 33.984375 -7.59375 C 35.859375 -8.394531 37.234375 -9.515625 38.109375 -10.953125 C 38.992188 -12.390625 39.4375 -14.050781 39.4375 -15.9375 C 39.4375 -18.882812 38.347656 -21.203125 36.171875 -22.890625 C 34.003906 -24.585938 30.738281 -25.4375 26.375 -25.4375 L 14.9375 -25.4375 Z M 14.9375 -6.40625 "/></g></g><g style="fill:#ffffff;fill-opacity:1;"><g transform="translate(242.781329, 196.298076)"><path style="stroke:none" d="M 43.359375 0 L 7.71875 0 L 7.71875 -55.8125 L 40.875 -55.8125 L 40.875 -49.140625 L 15.078125 -49.140625 L 15.078125 -31.953125 L 34.09375 -31.953125 L 34.09375 -25.515625 L 15.078125 -25.515625 L 15.078125 -6.671875 L 43.359375 -6.671875 Z M 43.359375 0 "/></g></g><g style="fill:#ffffff;fill-opacity:1;"><g transform="translate(288.190133, 196.298076)"><path style="stroke:none" d="M 29.078125 -22.1875 L 45.953125 0 L 37.546875 0 L 18 -26.40625 L 22.875 -26.40625 C 25.664062 -26.40625 28.128906 -26.882812 30.265625 -27.84375 C 32.398438 -28.800781 34.066406 -30.128906 35.265625 -31.828125 C 36.472656 -33.535156 37.078125 -35.515625 37.078125 -37.765625 C 37.078125 -40.046875 36.492188 -42.035156 35.328125 -43.734375 C 34.160156 -45.441406 32.535156 -46.773438 30.453125 -47.734375 C 28.378906 -48.691406 25.929688 -49.171875 23.109375 -49.171875 L 15.046875 -49.171875 L 15.046875 0 L 7.71875 0 L 7.71875 -55.8125 L 23.109375 -55.8125 C 26.421875 -55.8125 29.414062 -55.359375 32.09375 -54.453125 C 34.769531 -53.546875 37.054688 -52.273438 38.953125 -50.640625 C 40.859375 -49.015625 42.320312 -47.109375 43.34375 -44.921875 C 44.363281 -42.742188 44.875 -40.359375 44.875 -37.765625 C 44.875 -35.773438 44.488281 -33.890625 43.71875 -32.109375 C 42.957031 -30.328125 41.878906 -28.738281 40.484375 -27.34375 C 39.085938 -25.945312 37.425781 -24.796875 35.5 -23.890625 C 33.570312 -22.984375 31.429688 -22.414062 29.078125 -22.1875 Z M 29.078125 -22.1875 "/></g></g><g clip-rule="nonzero" clip-path="url(#30b4394be8)"><path style=" stroke:none;fill-rule:nonzero;fill:#ffffff;fill-opacity:1;" d="M 337.496094 203.546875 L 44.675781 203.546875 L 44.675781 211.027344 L 337.496094 211.027344 Z M 337.496094 203.546875 "/></g><g style="fill:#ffffff;fill-opacity:1;"><g transform="translate(136.556553, 240.291798)"><path style="stroke:none" d="M -0.515625 0.1875 C -0.609375 0.0625 -0.65625 -0.140625 -0.65625 -0.421875 C -0.65625 -0.898438 -0.546875 -1.609375 -0.328125 -2.546875 C 0.015625 -4.117188 0.628906 -6.53125 1.515625 -9.78125 C 1.921875 -11.257812 2.28125 -12.597656 2.59375 -13.796875 C 2.914062 -14.992188 3.09375 -15.6875 3.125 -15.875 C 3.15625 -16.03125 3.203125 -16.28125 3.265625 -16.625 C 3.109375 -16.59375 2.851562 -16.5625 2.5 -16.53125 C 2.0625 -16.46875 1.6875 -16.546875 1.375 -16.765625 C 1.082031 -16.984375 0.9375 -17.285156 0.9375 -17.671875 C 0.9375 -18.015625 1.097656 -18.3125 1.421875 -18.5625 C 1.703125 -18.8125 2.109375 -18.96875 2.640625 -19.03125 C 2.898438 -19.0625 3.15625 -19.128906 3.40625 -19.234375 C 3.65625 -19.296875 3.8125 -19.359375 3.875 -19.421875 C 3.9375 -19.484375 4.125 -19.984375 4.4375 -20.921875 C 4.71875 -21.867188 5.035156 -22.941406 5.390625 -24.140625 C 5.796875 -25.648438 6.1875 -27.097656 6.5625 -28.484375 C 6.945312 -29.867188 7.140625 -30.671875 7.140625 -30.890625 C 7.140625 -31.078125 6.945312 -31.125 6.5625 -31.03125 C 6.15625 -30.96875 5.210938 -30.6875 3.734375 -30.1875 C 2.472656 -29.78125 1.65625 -29.53125 1.28125 -29.4375 C 0.894531 -29.375 0.59375 -29.390625 0.375 -29.484375 C 0.09375 -29.640625 -0.09375 -29.875 -0.1875 -30.1875 C -0.28125 -30.5 -0.25 -30.796875 -0.09375 -31.078125 C 0.03125 -31.335938 0.535156 -31.640625 1.421875 -31.984375 C 2.296875 -32.359375 3.601562 -32.800781 5.34375 -33.3125 C 6 -33.5 6.582031 -33.671875 7.09375 -33.828125 C 7.625 -33.984375 7.90625 -34.078125 7.9375 -34.109375 C 8 -34.140625 8.078125 -34.3125 8.171875 -34.625 C 8.265625 -34.9375 8.359375 -35.285156 8.453125 -35.671875 C 8.671875 -36.515625 8.878906 -37.066406 9.078125 -37.328125 C 9.296875 -37.609375 9.609375 -37.75 10.015625 -37.75 C 10.484375 -37.75 10.8125 -37.570312 11 -37.21875 C 11.195312 -36.875 11.210938 -36.421875 11.046875 -35.859375 C 10.984375 -35.640625 10.9375 -35.429688 10.90625 -35.234375 C 10.875 -35.046875 10.875 -34.9375 10.90625 -34.90625 C 10.9375 -34.90625 11.160156 -34.9375 11.578125 -35 C 12.015625 -35.09375 12.535156 -35.207031 13.140625 -35.34375 C 15.816406 -35.96875 18.617188 -36.453125 21.546875 -36.796875 C 24.472656 -37.148438 27.632812 -37.375 31.03125 -37.46875 C 33.238281 -37.53125 34.609375 -37.546875 35.140625 -37.515625 C 35.679688 -37.484375 36.046875 -37.382812 36.234375 -37.21875 C 36.484375 -36.96875 36.609375 -36.6875 36.609375 -36.375 C 36.609375 -36.0625 36.46875 -35.78125 36.1875 -35.53125 C 36 -35.375 35.632812 -35.257812 35.09375 -35.1875 C 34.5625 -35.125 33.289062 -35.0625 31.28125 -35 C 30.019531 -34.96875 28.820312 -34.921875 27.6875 -34.859375 C 26.550781 -34.828125 25.8125 -34.796875 25.46875 -34.765625 C 22.851562 -34.484375 20.566406 -34.1875 18.609375 -33.875 C 16.691406 -33.59375 14.769531 -33.210938 12.84375 -32.734375 C 11.75 -32.484375 11.023438 -32.296875 10.671875 -32.171875 C 10.296875 -32.015625 10.078125 -31.859375 10.015625 -31.703125 C 9.921875 -31.484375 9.734375 -30.867188 9.453125 -29.859375 C 9.160156 -28.816406 8.859375 -27.664062 8.546875 -26.40625 C 8.140625 -24.894531 7.78125 -23.460938 7.46875 -22.109375 C 7.113281 -20.785156 6.953125 -20.109375 6.984375 -20.078125 C 7.015625 -20.046875 7.316406 -20.046875 7.890625 -20.078125 C 8.421875 -20.140625 9.066406 -20.203125 9.828125 -20.265625 C 11.523438 -20.484375 12.972656 -20.59375 14.171875 -20.59375 C 15.367188 -20.59375 16.03125 -20.515625 16.15625 -20.359375 C 16.375 -20.078125 16.5 -19.796875 16.53125 -19.515625 C 16.53125 -19.222656 16.4375 -18.96875 16.25 -18.75 C 16.0625 -18.53125 15.8125 -18.390625 15.5 -18.328125 C 15.175781 -18.265625 14.453125 -18.1875 13.328125 -18.09375 C 11.648438 -18 10.070312 -17.84375 8.59375 -17.625 C 7.113281 -17.40625 6.3125 -17.210938 6.1875 -17.046875 C 6.125 -16.984375 6 -16.625 5.8125 -15.96875 C 5.59375 -15.332031 5.390625 -14.609375 5.203125 -13.796875 C 4.941406 -12.878906 4.671875 -11.882812 4.390625 -10.8125 C 4.140625 -9.78125 3.875 -8.726562 3.59375 -7.65625 C 3.050781 -5.695312 2.5625 -3.960938 2.125 -2.453125 C 1.6875 -0.910156 1.421875 -0.0625 1.328125 0.09375 C 1.140625 0.40625 0.835938 0.5625 0.421875 0.5625 L 0.375 0.5625 C 0.03125 0.5625 -0.265625 0.4375 -0.515625 0.1875 Z M -0.515625 0.1875 "/></g></g><g style="fill:#ffffff;fill-opacity:1;"><g transform="translate(160.743805, 240.291798)"><path style="stroke:none" d="M 2.546875 0.328125 C 0.597656 -0.648438 -0.53125 -2.507812 -0.84375 -5.25 C -0.90625 -5.8125 -0.9375 -6.40625 -0.9375 -7.03125 C -0.9375 -9.519531 -0.4375 -12.640625 0.5625 -16.390625 C 1.195312 -18.660156 1.96875 -21.007812 2.875 -23.4375 C 3.789062 -25.851562 5.035156 -28.90625 6.609375 -32.59375 C 7.460938 -34.519531 8.078125 -35.734375 8.453125 -36.234375 C 8.734375 -36.578125 9.035156 -36.75 9.359375 -36.75 C 9.484375 -36.75 9.609375 -36.71875 9.734375 -36.65625 C 10.234375 -36.4375 10.421875 -36.015625 10.296875 -35.390625 C 10.171875 -34.785156 9.585938 -33.253906 8.546875 -30.796875 C 6.910156 -26.953125 5.648438 -23.835938 4.765625 -21.453125 C 3.890625 -19.023438 3.179688 -16.753906 2.640625 -14.640625 C 2.109375 -12.441406 1.765625 -10.363281 1.609375 -8.40625 C 1.484375 -6.488281 1.578125 -5.039062 1.890625 -4.0625 C 2.265625 -2.925781 2.910156 -2.21875 3.828125 -1.9375 C 4.742188 -1.625 5.941406 -1.71875 7.421875 -2.21875 C 8.296875 -2.53125 9.175781 -3.003906 10.0625 -3.640625 C 10.945312 -4.296875 11.796875 -5.035156 12.609375 -5.859375 C 14.117188 -7.335938 15.472656 -8.847656 16.671875 -10.390625 C 17.867188 -11.898438 18.707031 -12.832031 19.1875 -13.1875 C 19.6875 -13.46875 20.21875 -13.398438 20.78125 -12.984375 C 21 -12.796875 21.109375 -12.546875 21.109375 -12.234375 C 21.109375 -11.828125 20.890625 -11.257812 20.453125 -10.53125 C 20.171875 -10.15625 19.78125 -9.632812 19.28125 -8.96875 C 18.769531 -8.3125 18.171875 -7.585938 17.484375 -6.796875 C 16.222656 -5.347656 14.691406 -3.882812 12.890625 -2.40625 C 11.097656 -0.957031 9.179688 0.015625 7.140625 0.515625 C 6.503906 0.640625 5.828125 0.703125 5.109375 0.703125 L 4.625 0.703125 C 3.71875 0.671875 3.023438 0.546875 2.546875 0.328125 Z M 2.546875 0.328125 "/></g></g><g style="fill:#ffffff;fill-opacity:1;"><g transform="translate(180.065261, 240.291798)"><path style="stroke:none" d="M 3.96875 -0.28125 L 3.21875 -0.65625 C 2.957031 -0.8125 2.78125 -0.941406 2.6875 -1.046875 C 2.21875 -1.484375 1.796875 -2.238281 1.421875 -3.3125 C 1.066406 -4.375 0.890625 -5.410156 0.890625 -6.421875 C 0.890625 -7.929688 1.238281 -9.835938 1.9375 -12.140625 C 2.625 -14.472656 3.519531 -16.785156 4.625 -19.078125 C 5.476562 -20.785156 6.09375 -21.9375 6.46875 -22.53125 C 6.882812 -23.101562 7.25 -23.390625 7.5625 -23.390625 C 7.875 -23.390625 8.140625 -23.257812 8.359375 -23 C 8.609375 -22.75 8.734375 -22.46875 8.734375 -22.15625 C 8.734375 -22.03125 8.59375 -21.648438 8.3125 -21.015625 C 8.03125 -20.390625 7.703125 -19.679688 7.328125 -18.890625 C 6.003906 -16.273438 5.039062 -13.976562 4.4375 -12 C 3.8125 -10.007812 3.5 -8.195312 3.5 -6.5625 C 3.5 -5.75 3.515625 -5.148438 3.546875 -4.765625 C 3.609375 -4.359375 3.71875 -4 3.875 -3.6875 C 4.5625 -2.269531 5.882812 -1.96875 7.84375 -2.78125 C 9.820312 -3.632812 11.867188 -5.210938 13.984375 -7.515625 C 15.148438 -8.742188 16.253906 -10.128906 17.296875 -11.671875 C 18.359375 -13.210938 19.316406 -14.847656 20.171875 -16.578125 C 21.773438 -19.921875 22.765625 -22.898438 23.140625 -25.515625 C 23.523438 -28.128906 23.273438 -30.300781 22.390625 -32.03125 C 21.921875 -32.976562 21.304688 -33.625 20.546875 -33.96875 C 19.796875 -34.3125 18.851562 -34.359375 17.71875 -34.109375 C 16.238281 -33.828125 14.628906 -33.054688 12.890625 -31.796875 C 11.128906 -30.566406 9.523438 -29.054688 8.078125 -27.265625 C 6.347656 -25.179688 4.976562 -23.050781 3.96875 -20.875 C 2.925781 -18.675781 2.171875 -16.253906 1.703125 -13.609375 C 1.484375 -12.410156 1.28125 -11.640625 1.09375 -11.296875 C 0.894531 -10.941406 0.578125 -10.765625 0.140625 -10.765625 C -0.140625 -10.765625 -0.390625 -10.910156 -0.609375 -11.203125 C -0.828125 -11.484375 -0.9375 -11.8125 -0.9375 -12.1875 C -0.9375 -12.75 -0.78125 -13.804688 -0.46875 -15.359375 C -0.125 -16.867188 0.203125 -18.078125 0.515625 -18.984375 C 1.460938 -21.660156 2.785156 -24.210938 4.484375 -26.640625 C 6.179688 -29.066406 8.054688 -31.113281 10.109375 -32.78125 C 11.179688 -33.695312 12.300781 -34.46875 13.46875 -35.09375 C 14.601562 -35.726562 15.71875 -36.1875 16.8125 -36.46875 C 17.601562 -36.6875 18.34375 -36.796875 19.03125 -36.796875 C 20.894531 -36.796875 22.457031 -36.054688 23.71875 -34.578125 C 25.101562 -32.941406 25.796875 -30.769531 25.796875 -28.0625 C 25.796875 -27.394531 25.75 -26.703125 25.65625 -25.984375 C 25.40625 -23.742188 24.867188 -21.492188 24.046875 -19.234375 C 23.191406 -16.960938 22.007812 -14.550781 20.5 -12 C 19.75 -10.707031 18.867188 -9.429688 17.859375 -8.171875 C 16.847656 -6.910156 15.742188 -5.710938 14.546875 -4.578125 C 12.472656 -2.566406 10.535156 -1.195312 8.734375 -0.46875 C 7.734375 -0.0625 6.804688 0.140625 5.953125 0.140625 C 5.253906 0.140625 4.59375 0 3.96875 -0.28125 Z M 3.96875 -0.28125 "/></g></g><g style="fill:#ffffff;fill-opacity:1;"><g transform="translate(207.181439, 240.291798)"><path style="stroke:none" d="M 2.921875 -0.1875 C 2.578125 -0.28125 2.171875 -0.546875 1.703125 -0.984375 C 1.222656 -1.398438 0.875 -1.8125 0.65625 -2.21875 C 0.21875 -3.132812 0 -4.363281 0 -5.90625 C 0 -7.476562 0.25 -9.210938 0.75 -11.109375 C 1.132812 -12.617188 1.609375 -14.113281 2.171875 -15.59375 C 2.703125 -17.070312 3.472656 -18.894531 4.484375 -21.0625 C 4.960938 -22.039062 5.34375 -22.878906 5.625 -23.578125 C 5.9375 -24.265625 6.078125 -24.625 6.046875 -24.65625 C 6.046875 -24.6875 5.890625 -24.546875 5.578125 -24.234375 C 5.265625 -23.921875 4.898438 -23.523438 4.484375 -23.046875 C 3.703125 -22.203125 3.132812 -21.6875 2.78125 -21.5 C 2.40625 -21.34375 2.0625 -21.4375 1.75 -21.78125 C 1.34375 -22.25 1.28125 -22.753906 1.5625 -23.296875 C 1.875 -23.828125 2.769531 -24.878906 4.25 -26.453125 C 5.570312 -27.804688 6.582031 -28.65625 7.28125 -29 C 7.96875 -29.382812 8.597656 -29.367188 9.171875 -28.953125 C 9.734375 -28.578125 9.890625 -27.898438 9.640625 -26.921875 C 9.421875 -25.921875 8.632812 -23.984375 7.28125 -21.109375 C 6.050781 -18.472656 5.164062 -16.457031 4.625 -15.0625 C 4.09375 -13.644531 3.640625 -12.226562 3.265625 -10.8125 C 2.878906 -9.363281 2.640625 -8.125 2.546875 -7.09375 C 2.421875 -6.082031 2.4375 -5.195312 2.59375 -4.4375 C 2.8125 -3.5 3.160156 -2.914062 3.640625 -2.6875 C 4.140625 -2.46875 4.847656 -2.582031 5.765625 -3.03125 C 7.335938 -3.78125 9.273438 -5.84375 11.578125 -9.21875 C 13.835938 -12.582031 16.546875 -17.367188 19.703125 -23.578125 C 20.804688 -25.710938 21.546875 -26.988281 21.921875 -27.40625 C 22.296875 -27.8125 22.722656 -27.828125 23.203125 -27.453125 C 23.359375 -27.359375 23.5 -27.210938 23.625 -27.015625 C 23.75 -26.859375 23.828125 -26.71875 23.859375 -26.59375 C 23.859375 -26.46875 23.796875 -26.1875 23.671875 -25.75 C 23.546875 -25.269531 23.367188 -24.765625 23.140625 -24.234375 C 22.671875 -22.972656 22.265625 -21.710938 21.921875 -20.453125 C 21.546875 -19.191406 21.257812 -17.960938 21.0625 -16.765625 C 20.65625 -14.597656 20.515625 -12.710938 20.640625 -11.109375 C 20.765625 -9.460938 21.160156 -8.40625 21.828125 -7.9375 C 22.960938 -7.144531 24.425781 -7.570312 26.21875 -9.21875 C 28.039062 -10.820312 29.691406 -12.960938 31.171875 -15.640625 C 31.992188 -17.054688 32.707031 -18.550781 33.3125 -20.125 C 33.90625 -21.726562 34.3125 -23.285156 34.53125 -24.796875 C 34.84375 -26.878906 34.78125 -28.925781 34.34375 -30.9375 C 33.875 -32.957031 33.070312 -34.753906 31.9375 -36.328125 C 31.5625 -36.828125 31.359375 -37.222656 31.328125 -37.515625 C 31.328125 -37.796875 31.453125 -38.078125 31.703125 -38.359375 C 31.953125 -38.609375 32.21875 -38.71875 32.5 -38.6875 C 32.78125 -38.6875 33.066406 -38.578125 33.359375 -38.359375 C 33.921875 -37.890625 34.582031 -36.898438 35.34375 -35.390625 C 36.03125 -33.929688 36.5 -32.65625 36.75 -31.5625 C 37 -30.457031 37.140625 -29.039062 37.171875 -27.3125 C 37.171875 -25.726562 37.0625 -24.390625 36.84375 -23.296875 C 36.65625 -22.191406 36.25 -20.851562 35.625 -19.28125 C 34.050781 -15.144531 32.066406 -11.757812 29.671875 -9.125 C 27.304688 -6.476562 25.050781 -5.140625 22.90625 -5.109375 C 22.21875 -5.109375 21.671875 -5.203125 21.265625 -5.390625 C 20.847656 -5.546875 20.390625 -5.859375 19.890625 -6.328125 C 19.285156 -6.929688 18.859375 -7.640625 18.609375 -8.453125 C 18.359375 -9.273438 18.203125 -10.519531 18.140625 -12.1875 C 18.140625 -12.820312 18.109375 -13.765625 18.046875 -15.015625 C 17.734375 -14.453125 17.242188 -13.601562 16.578125 -12.46875 C 14.535156 -8.976562 12.710938 -6.285156 11.109375 -4.390625 C 9.492188 -2.503906 7.914062 -1.210938 6.375 -0.515625 C 5.875 -0.296875 5.273438 -0.15625 4.578125 -0.09375 C 4.359375 -0.0625 4.140625 -0.046875 3.921875 -0.046875 C 3.546875 -0.046875 3.210938 -0.09375 2.921875 -0.1875 Z M 2.921875 -0.1875 "/></g></g><g clip-rule="nonzero" clip-path="url(#9f09b848c9)"><path style=" stroke:none;fill-rule:nonzero;fill:#ffffff;fill-opacity:1;" d="M 43.984375 203.546875 L 336.808594 203.546875 L 336.808594 211.027344 L 43.984375 211.027344 Z M 43.984375 203.546875 "/></g></g></svg>