<svg xmlns="http://www.w3.org/2000/svg" xmlns:xlink="http://www.w3.org/1999/xlink" width="500" zoomAndPan="magnify" viewBox="0 0 375 157.92" height="200" preserveAspectRatio="xMidYMid meet" version="1.2"><defs><clipPath id="a65c70f8b3"><path d="M 40.359375 7.453125 L 334.960938 7.453125 L 334.960938 15 L 40.359375 15 Z M 40.359375 7.453125 "/></clipPath><clipPath id="7ffaa76b5f"><path d="M 40.359375 14 L 334.960938 14 L 334.960938 22.445312 L 40.359375 22.445312 Z M 40.359375 14 "/></clipPath><clipPath id="e4cb5376ea"><path d="M 40.359375 98.886719 L 113.820312 98.886719 L 113.820312 104.886719 L 40.359375 104.886719 Z M 40.359375 98.886719 "/></clipPath><clipPath id="5b1969b9ea"><path d="M 261.15625 98.886719 L 334.621094 98.886719 L 334.621094 104.886719 L 261.15625 104.886719 Z M 261.15625 98.886719 "/></clipPath></defs><g id="89f449d5da"><g clip-rule="nonzero" clip-path="url(#a65c70f8b3)"><path style=" stroke:none;fill-rule:nonzero;fill:#ffffff;fill-opacity:1;" d="M 40.359375 7.472656 L 334.960938 7.472656 L 334.960938 14.949219 L 40.359375 14.949219 Z M 40.359375 7.472656 "/></g><g clip-rule="nonzero" clip-path="url(#7ffaa76b5f)"><path style=" stroke:none;fill-rule:nonzero;fill:#000000;fill-opacity:1;" d="M 40.359375 14.949219 L 334.960938 14.949219 L 334.960938 22.421875 L 40.359375 22.421875 Z M 40.359375 14.949219 "/></g><g style="fill:#000000;fill-opacity:1;"><g transform="translate(40.379292, 87.122152)"><path style="stroke:none" d="M 34.5625 -29.078125 C 37.050781 -28.660156 39.253906 -27.847656 41.171875 -26.640625 C 43.085938 -25.441406 44.585938 -23.898438 45.671875 -22.015625 C 46.765625 -20.140625 47.3125 -17.957031 47.3125 -15.46875 C 47.3125 -10.519531 45.5 -6.703125 41.875 -4.015625 C 38.25 -1.335938 32.882812 0 25.78125 0 L 7.734375 0 L 7.734375 -55.953125 L 25.265625 -55.953125 C 31.566406 -55.953125 36.421875 -54.710938 39.828125 -52.234375 C 43.234375 -49.753906 44.9375 -46.207031 44.9375 -41.59375 C 44.9375 -38.507812 44.035156 -35.847656 42.234375 -33.609375 C 40.441406 -31.367188 37.882812 -29.859375 34.5625 -29.078125 Z M 25.734375 -49.53125 L 14.96875 -49.53125 L 14.96875 -32.078125 L 26.046875 -32.078125 C 29.878906 -32.078125 32.742188 -32.882812 34.640625 -34.5 C 36.535156 -36.125 37.484375 -38.269531 37.484375 -40.9375 C 37.484375 -43.53125 36.53125 -45.609375 34.625 -47.171875 C 32.71875 -48.742188 29.753906 -49.53125 25.734375 -49.53125 Z M 14.96875 -6.421875 L 26.671875 -6.421875 C 29.734375 -6.421875 32.203125 -6.820312 34.078125 -7.625 C 35.953125 -8.425781 37.332031 -9.546875 38.21875 -10.984375 C 39.101562 -12.421875 39.546875 -14.085938 39.546875 -15.984375 C 39.546875 -18.929688 38.457031 -21.253906 36.28125 -22.953125 C 34.101562 -24.648438 30.820312 -25.5 26.4375 -25.5 L 14.96875 -25.5 Z M 14.96875 -6.421875 "/></g></g><g style="fill:#000000;fill-opacity:1;"><g transform="translate(89.01722, 87.122152)"><path style="stroke:none" d="M 51.4375 0 L 43.734375 0 L 38.109375 -15.515625 L 14.78125 -15.515625 L 9.09375 0 L 1.40625 0 L 22.703125 -55.953125 L 30.015625 -55.953125 Z M 26.484375 -47.390625 L 16.90625 -21.265625 L 36 -21.265625 Z M 26.484375 -47.390625 "/></g></g><g style="fill:#000000;fill-opacity:1;"><g transform="translate(141.893019, 87.122152)"><path style="stroke:none" d="M 29.15625 -22.234375 L 46.078125 0 L 37.640625 0 L 18.046875 -26.484375 L 22.9375 -26.484375 C 25.738281 -26.484375 28.207031 -26.960938 30.34375 -27.921875 C 32.476562 -28.878906 34.148438 -30.210938 35.359375 -31.921875 C 36.566406 -33.628906 37.171875 -35.613281 37.171875 -37.875 C 37.171875 -40.15625 36.585938 -42.148438 35.421875 -43.859375 C 34.253906 -45.566406 32.625 -46.898438 30.53125 -47.859375 C 28.445312 -48.816406 25.992188 -49.296875 23.171875 -49.296875 L 15.078125 -49.296875 L 15.078125 0 L 7.734375 0 L 7.734375 -55.953125 L 23.171875 -55.953125 C 26.492188 -55.953125 29.492188 -55.492188 32.171875 -54.578125 C 34.859375 -53.671875 37.148438 -52.398438 39.046875 -50.765625 C 40.953125 -49.140625 42.414062 -47.226562 43.4375 -45.03125 C 44.46875 -42.84375 44.984375 -40.457031 44.984375 -37.875 C 44.984375 -35.875 44.597656 -33.976562 43.828125 -32.1875 C 43.066406 -30.40625 41.984375 -28.8125 40.578125 -27.40625 C 39.179688 -26.007812 37.519531 -24.859375 35.59375 -23.953125 C 33.664062 -23.046875 31.519531 -22.472656 29.15625 -22.234375 Z M 29.15625 -22.234375 "/></g></g><g style="fill:#000000;fill-opacity:1;"><g transform="translate(190.297712, 87.122152)"><path style="stroke:none" d="M 34.5625 -29.078125 C 37.050781 -28.660156 39.253906 -27.847656 41.171875 -26.640625 C 43.085938 -25.441406 44.585938 -23.898438 45.671875 -22.015625 C 46.765625 -20.140625 47.3125 -17.957031 47.3125 -15.46875 C 47.3125 -10.519531 45.5 -6.703125 41.875 -4.015625 C 38.25 -1.335938 32.882812 0 25.78125 0 L 7.734375 0 L 7.734375 -55.953125 L 25.265625 -55.953125 C 31.566406 -55.953125 36.421875 -54.710938 39.828125 -52.234375 C 43.234375 -49.753906 44.9375 -46.207031 44.9375 -41.59375 C 44.9375 -38.507812 44.035156 -35.847656 42.234375 -33.609375 C 40.441406 -31.367188 37.882812 -29.859375 34.5625 -29.078125 Z M 25.734375 -49.53125 L 14.96875 -49.53125 L 14.96875 -32.078125 L 26.046875 -32.078125 C 29.878906 -32.078125 32.742188 -32.882812 34.640625 -34.5 C 36.535156 -36.125 37.484375 -38.269531 37.484375 -40.9375 C 37.484375 -43.53125 36.53125 -45.609375 34.625 -47.171875 C 32.71875 -48.742188 29.753906 -49.53125 25.734375 -49.53125 Z M 14.96875 -6.421875 L 26.671875 -6.421875 C 29.734375 -6.421875 32.203125 -6.820312 34.078125 -7.625 C 35.953125 -8.425781 37.332031 -9.546875 38.21875 -10.984375 C 39.101562 -12.421875 39.546875 -14.085938 39.546875 -15.984375 C 39.546875 -18.929688 38.457031 -21.253906 36.28125 -22.953125 C 34.101562 -24.648438 30.820312 -25.5 26.4375 -25.5 L 14.96875 -25.5 Z M 14.96875 -6.421875 "/></g></g><g style="fill:#000000;fill-opacity:1;"><g transform="translate(239.674378, 87.122152)"><path style="stroke:none" d="M 43.46875 0 L 7.734375 0 L 7.734375 -55.953125 L 40.984375 -55.953125 L 40.984375 -49.265625 L 15.125 -49.265625 L 15.125 -32.03125 L 34.171875 -32.03125 L 34.171875 -25.578125 L 15.125 -25.578125 L 15.125 -6.6875 L 43.46875 -6.6875 Z M 43.46875 0 "/></g></g><g style="fill:#000000;fill-opacity:1;"><g transform="translate(285.202005, 87.122152)"><path style="stroke:none" d="M 29.15625 -22.234375 L 46.078125 0 L 37.640625 0 L 18.046875 -26.484375 L 22.9375 -26.484375 C 25.738281 -26.484375 28.207031 -26.960938 30.34375 -27.921875 C 32.476562 -28.878906 34.148438 -30.210938 35.359375 -31.921875 C 36.566406 -33.628906 37.171875 -35.613281 37.171875 -37.875 C 37.171875 -40.15625 36.585938 -42.148438 35.421875 -43.859375 C 34.253906 -45.566406 32.625 -46.898438 30.53125 -47.859375 C 28.445312 -48.816406 25.992188 -49.296875 23.171875 -49.296875 L 15.078125 -49.296875 L 15.078125 0 L 7.734375 0 L 7.734375 -55.953125 L 23.171875 -55.953125 C 26.492188 -55.953125 29.492188 -55.492188 32.171875 -54.578125 C 34.859375 -53.671875 37.148438 -52.398438 39.046875 -50.765625 C 40.953125 -49.140625 42.414062 -47.226562 43.4375 -45.03125 C 44.46875 -42.84375 44.984375 -40.457031 44.984375 -37.875 C 44.984375 -35.875 44.597656 -33.976562 43.828125 -32.1875 C 43.066406 -30.40625 41.984375 -28.8125 40.578125 -27.40625 C 39.179688 -26.007812 37.519531 -24.859375 35.59375 -23.953125 C 33.664062 -23.046875 31.519531 -22.472656 29.15625 -22.234375 Z M 29.15625 -22.234375 "/></g></g><g clip-rule="nonzero" clip-path="url(#e4cb5376ea)"><path style=" stroke:none;fill-rule:nonzero;fill:#000000;fill-opacity:1;" d="M 334.632812 97.433594 L 40.03125 97.433594 L 40.03125 104.90625 L 334.632812 104.90625 Z M 334.632812 97.433594 "/></g><g style="fill:#000000;fill-opacity:1;"><g transform="translate(133.170094, 133.514889)"><path style="stroke:none" d="M -0.515625 0.1875 C -0.609375 0.0625 -0.65625 -0.140625 -0.65625 -0.421875 C -0.65625 -0.898438 -0.546875 -1.613281 -0.328125 -2.5625 C 0.015625 -4.132812 0.628906 -6.550781 1.515625 -9.8125 C 1.921875 -11.289062 2.285156 -12.628906 2.609375 -13.828125 C 2.921875 -15.035156 3.09375 -15.734375 3.125 -15.921875 C 3.15625 -16.078125 3.203125 -16.328125 3.265625 -16.671875 C 3.109375 -16.640625 2.859375 -16.609375 2.515625 -16.578125 C 2.066406 -16.515625 1.6875 -16.59375 1.375 -16.8125 C 1.09375 -17.039062 0.953125 -17.34375 0.953125 -17.71875 C 0.953125 -18.0625 1.109375 -18.363281 1.421875 -18.625 C 1.703125 -18.875 2.113281 -19.03125 2.65625 -19.09375 C 2.90625 -19.125 3.15625 -19.1875 3.40625 -19.28125 C 3.664062 -19.34375 3.828125 -19.40625 3.890625 -19.46875 C 3.953125 -19.53125 4.140625 -20.035156 4.453125 -20.984375 C 4.734375 -21.929688 5.050781 -23.003906 5.40625 -24.203125 C 5.8125 -25.722656 6.203125 -27.175781 6.578125 -28.5625 C 6.960938 -29.957031 7.15625 -30.765625 7.15625 -30.984375 C 7.15625 -31.171875 6.960938 -31.21875 6.578125 -31.125 C 6.171875 -31.0625 5.226562 -30.78125 3.75 -30.28125 C 2.476562 -29.863281 1.65625 -29.609375 1.28125 -29.515625 C 0.894531 -29.453125 0.59375 -29.46875 0.375 -29.5625 C 0.09375 -29.71875 -0.09375 -29.957031 -0.1875 -30.28125 C -0.28125 -30.59375 -0.25 -30.890625 -0.09375 -31.171875 C 0.03125 -31.421875 0.535156 -31.722656 1.421875 -32.078125 C 2.304688 -32.453125 3.617188 -32.894531 5.359375 -33.40625 C 6.015625 -33.59375 6.597656 -33.765625 7.109375 -33.921875 C 7.640625 -34.078125 7.921875 -34.171875 7.953125 -34.203125 C 8.015625 -34.234375 8.097656 -34.410156 8.203125 -34.734375 C 8.296875 -35.046875 8.390625 -35.390625 8.484375 -35.765625 C 8.703125 -36.617188 8.90625 -37.171875 9.09375 -37.421875 C 9.3125 -37.710938 9.628906 -37.859375 10.046875 -37.859375 C 10.515625 -37.859375 10.847656 -37.679688 11.046875 -37.328125 C 11.234375 -36.984375 11.25 -36.523438 11.09375 -35.953125 C 11.019531 -35.734375 10.96875 -35.53125 10.9375 -35.34375 C 10.90625 -35.15625 10.90625 -35.046875 10.9375 -35.015625 C 10.96875 -35.015625 11.191406 -35.046875 11.609375 -35.109375 C 12.046875 -35.203125 12.566406 -35.3125 13.171875 -35.4375 C 15.859375 -36.070312 18.671875 -36.5625 21.609375 -36.90625 C 24.546875 -37.25 27.71875 -37.472656 31.125 -37.578125 C 33.332031 -37.640625 34.707031 -37.65625 35.25 -37.625 C 35.789062 -37.59375 36.15625 -37.492188 36.34375 -37.328125 C 36.59375 -37.078125 36.71875 -36.796875 36.71875 -36.484375 C 36.71875 -36.160156 36.578125 -35.875 36.296875 -35.625 C 36.097656 -35.46875 35.734375 -35.359375 35.203125 -35.296875 C 34.660156 -35.234375 33.378906 -35.171875 31.359375 -35.109375 C 30.097656 -35.078125 28.898438 -35.03125 27.765625 -34.96875 C 26.628906 -34.9375 25.882812 -34.90625 25.53125 -34.875 C 22.914062 -34.582031 20.628906 -34.28125 18.671875 -33.96875 C 16.742188 -33.6875 14.816406 -33.304688 12.890625 -32.828125 C 11.785156 -32.578125 11.054688 -32.390625 10.703125 -32.265625 C 10.328125 -32.109375 10.109375 -31.953125 10.046875 -31.796875 C 9.953125 -31.566406 9.757812 -30.945312 9.46875 -29.9375 C 9.1875 -28.894531 8.890625 -27.742188 8.578125 -26.484375 C 8.160156 -24.960938 7.796875 -23.523438 7.484375 -22.171875 C 7.140625 -20.847656 6.984375 -20.171875 7.015625 -20.140625 C 7.046875 -20.109375 7.34375 -20.109375 7.90625 -20.140625 C 8.445312 -20.203125 9.097656 -20.265625 9.859375 -20.328125 C 11.554688 -20.546875 13.007812 -20.65625 14.21875 -20.65625 C 15.414062 -20.65625 16.078125 -20.578125 16.203125 -20.421875 C 16.421875 -20.140625 16.546875 -19.851562 16.578125 -19.5625 C 16.578125 -19.28125 16.484375 -19.03125 16.296875 -18.8125 C 16.109375 -18.59375 15.859375 -18.453125 15.546875 -18.390625 C 15.222656 -18.316406 14.492188 -18.234375 13.359375 -18.140625 C 11.679688 -18.046875 10.101562 -17.890625 8.625 -17.671875 C 7.132812 -17.453125 6.328125 -17.265625 6.203125 -17.109375 C 6.140625 -17.046875 6.015625 -16.679688 5.828125 -16.015625 C 5.609375 -15.378906 5.40625 -14.648438 5.21875 -13.828125 C 4.957031 -12.910156 4.6875 -11.914062 4.40625 -10.84375 C 4.15625 -9.800781 3.882812 -8.742188 3.59375 -7.671875 C 3.0625 -5.710938 2.570312 -3.976562 2.125 -2.46875 C 1.6875 -0.914062 1.421875 -0.0625 1.328125 0.09375 C 1.140625 0.40625 0.835938 0.5625 0.421875 0.5625 L 0.375 0.5625 C 0.03125 0.5625 -0.265625 0.4375 -0.515625 0.1875 Z M -0.515625 0.1875 "/></g></g><g style="fill:#000000;fill-opacity:1;"><g transform="translate(157.42148, 133.514889)"><path style="stroke:none" d="M 2.5625 0.328125 C 0.601562 -0.648438 -0.535156 -2.515625 -0.859375 -5.265625 C -0.921875 -5.828125 -0.953125 -6.425781 -0.953125 -7.0625 C -0.953125 -9.550781 -0.445312 -12.675781 0.5625 -16.4375 C 1.195312 -18.71875 1.972656 -21.070312 2.890625 -23.5 C 3.804688 -25.925781 5.054688 -28.988281 6.640625 -32.6875 C 7.484375 -34.613281 8.097656 -35.832031 8.484375 -36.34375 C 8.765625 -36.6875 9.0625 -36.859375 9.375 -36.859375 C 9.507812 -36.859375 9.640625 -36.828125 9.765625 -36.765625 C 10.265625 -36.546875 10.453125 -36.117188 10.328125 -35.484375 C 10.203125 -34.890625 9.617188 -33.359375 8.578125 -30.890625 C 6.929688 -27.035156 5.664062 -23.910156 4.78125 -21.515625 C 3.894531 -19.078125 3.1875 -16.800781 2.65625 -14.6875 C 2.113281 -12.476562 1.765625 -10.394531 1.609375 -8.4375 C 1.484375 -6.507812 1.578125 -5.054688 1.890625 -4.078125 C 2.273438 -2.941406 2.925781 -2.226562 3.84375 -1.9375 C 4.757812 -1.625 5.957031 -1.722656 7.4375 -2.234375 C 8.320312 -2.546875 9.207031 -3.015625 10.09375 -3.640625 C 10.976562 -4.304688 11.832031 -5.050781 12.65625 -5.875 C 14.164062 -7.363281 15.519531 -8.878906 16.71875 -10.421875 C 17.925781 -11.941406 18.765625 -12.875 19.234375 -13.21875 C 19.742188 -13.5 20.28125 -13.4375 20.84375 -13.03125 C 21.0625 -12.84375 21.171875 -12.585938 21.171875 -12.265625 C 21.171875 -11.859375 20.953125 -11.289062 20.515625 -10.5625 C 20.234375 -10.1875 19.835938 -9.664062 19.328125 -9 C 18.828125 -8.332031 18.226562 -7.609375 17.53125 -6.828125 C 16.269531 -5.367188 14.738281 -3.898438 12.9375 -2.421875 C 11.132812 -0.960938 9.207031 0.015625 7.15625 0.515625 C 6.519531 0.640625 5.835938 0.703125 5.109375 0.703125 L 4.640625 0.703125 C 3.722656 0.671875 3.03125 0.546875 2.5625 0.328125 Z M 2.5625 0.328125 "/></g></g><g style="fill:#000000;fill-opacity:1;"><g transform="translate(176.794169, 133.514889)"><path style="stroke:none" d="M 3.984375 -0.28125 L 3.21875 -0.65625 C 2.96875 -0.820312 2.796875 -0.953125 2.703125 -1.046875 C 2.222656 -1.484375 1.796875 -2.238281 1.421875 -3.3125 C 1.078125 -4.382812 0.90625 -5.425781 0.90625 -6.4375 C 0.90625 -7.957031 1.25 -9.867188 1.9375 -12.171875 C 2.632812 -14.515625 3.535156 -16.835938 4.640625 -19.140625 C 5.492188 -20.847656 6.109375 -22 6.484375 -22.59375 C 6.898438 -23.164062 7.265625 -23.453125 7.578125 -23.453125 C 7.890625 -23.453125 8.160156 -23.328125 8.390625 -23.078125 C 8.640625 -22.816406 8.765625 -22.53125 8.765625 -22.21875 C 8.765625 -22.09375 8.625 -21.710938 8.34375 -21.078125 C 8.050781 -20.453125 7.71875 -19.742188 7.34375 -18.953125 C 6.019531 -16.328125 5.054688 -14.019531 4.453125 -12.03125 C 3.816406 -10.039062 3.5 -8.222656 3.5 -6.578125 C 3.5 -5.765625 3.515625 -5.164062 3.546875 -4.78125 C 3.609375 -4.375 3.722656 -4.015625 3.890625 -3.703125 C 4.578125 -2.273438 5.898438 -1.972656 7.859375 -2.796875 C 9.847656 -3.648438 11.90625 -5.226562 14.03125 -7.53125 C 15.195312 -8.757812 16.300781 -10.148438 17.34375 -11.703125 C 18.414062 -13.253906 19.378906 -14.894531 20.234375 -16.625 C 21.835938 -19.976562 22.832031 -22.960938 23.21875 -25.578125 C 23.59375 -28.203125 23.335938 -30.382812 22.453125 -32.125 C 21.984375 -33.070312 21.367188 -33.71875 20.609375 -34.0625 C 19.847656 -34.414062 18.898438 -34.460938 17.765625 -34.203125 C 16.285156 -33.921875 14.675781 -33.148438 12.9375 -31.890625 C 11.164062 -30.648438 9.554688 -29.132812 8.109375 -27.34375 C 6.367188 -25.25 4.992188 -23.113281 3.984375 -20.9375 C 2.941406 -18.726562 2.179688 -16.296875 1.703125 -13.640625 C 1.484375 -12.441406 1.28125 -11.671875 1.09375 -11.328125 C 0.90625 -10.972656 0.585938 -10.796875 0.140625 -10.796875 C -0.140625 -10.796875 -0.390625 -10.941406 -0.609375 -11.234375 C -0.835938 -11.515625 -0.953125 -11.84375 -0.953125 -12.21875 C -0.953125 -12.789062 -0.789062 -13.847656 -0.46875 -15.390625 C -0.125 -16.910156 0.203125 -18.128906 0.515625 -19.046875 C 1.460938 -21.734375 2.789062 -24.289062 4.5 -26.71875 C 6.207031 -29.15625 8.085938 -31.207031 10.140625 -32.875 C 11.210938 -33.789062 12.332031 -34.566406 13.5 -35.203125 C 14.632812 -35.835938 15.753906 -36.296875 16.859375 -36.578125 C 17.648438 -36.796875 18.394531 -36.90625 19.09375 -36.90625 C 20.957031 -36.90625 22.519531 -36.164062 23.78125 -34.6875 C 25.175781 -33.039062 25.875 -30.859375 25.875 -28.140625 C 25.875 -27.472656 25.820312 -26.78125 25.71875 -26.0625 C 25.46875 -23.8125 24.929688 -21.550781 24.109375 -19.28125 C 23.265625 -17.007812 22.082031 -14.59375 20.5625 -12.03125 C 19.800781 -10.738281 18.914062 -9.460938 17.90625 -8.203125 C 16.894531 -6.929688 15.789062 -5.726562 14.59375 -4.59375 C 12.507812 -2.570312 10.566406 -1.195312 8.765625 -0.46875 C 7.753906 -0.0625 6.820312 0.140625 5.96875 0.140625 C 5.269531 0.140625 4.609375 0 3.984375 -0.28125 Z M 3.984375 -0.28125 "/></g></g><g style="fill:#000000;fill-opacity:1;"><g transform="translate(203.982246, 133.514889)"><path style="stroke:none" d="M 2.9375 -0.1875 C 2.59375 -0.28125 2.179688 -0.550781 1.703125 -1 C 1.234375 -1.40625 0.882812 -1.816406 0.65625 -2.234375 C 0.21875 -3.140625 0 -4.367188 0 -5.921875 C 0 -7.503906 0.253906 -9.242188 0.765625 -11.140625 C 1.140625 -12.648438 1.609375 -14.148438 2.171875 -15.640625 C 2.710938 -17.117188 3.488281 -18.945312 4.5 -21.125 C 4.976562 -22.101562 5.359375 -22.941406 5.640625 -23.640625 C 5.953125 -24.335938 6.09375 -24.703125 6.0625 -24.734375 C 6.0625 -24.765625 5.90625 -24.625 5.59375 -24.3125 C 5.269531 -23.988281 4.90625 -23.59375 4.5 -23.125 C 3.707031 -22.269531 3.140625 -21.75 2.796875 -21.5625 C 2.421875 -21.40625 2.070312 -21.5 1.75 -21.84375 C 1.34375 -22.3125 1.28125 -22.816406 1.5625 -23.359375 C 1.875 -23.890625 2.773438 -24.945312 4.265625 -26.53125 C 5.585938 -27.882812 6.597656 -28.738281 7.296875 -29.09375 C 7.992188 -29.46875 8.625 -29.453125 9.1875 -29.046875 C 9.757812 -28.660156 9.921875 -27.976562 9.671875 -27 C 9.441406 -25.988281 8.648438 -24.046875 7.296875 -21.171875 C 6.066406 -18.523438 5.179688 -16.503906 4.640625 -15.109375 C 4.109375 -13.691406 3.648438 -12.269531 3.265625 -10.84375 C 2.890625 -9.394531 2.65625 -8.148438 2.5625 -7.109375 C 2.4375 -6.097656 2.453125 -5.210938 2.609375 -4.453125 C 2.828125 -3.503906 3.171875 -2.921875 3.640625 -2.703125 C 4.148438 -2.484375 4.863281 -2.59375 5.78125 -3.03125 C 7.363281 -3.789062 9.304688 -5.859375 11.609375 -9.234375 C 13.878906 -12.617188 16.59375 -17.421875 19.75 -23.640625 C 20.863281 -25.785156 21.609375 -27.066406 21.984375 -27.484375 C 22.359375 -27.890625 22.785156 -27.90625 23.265625 -27.53125 C 23.421875 -27.4375 23.5625 -27.289062 23.6875 -27.09375 C 23.8125 -26.9375 23.890625 -26.796875 23.921875 -26.671875 C 23.921875 -26.546875 23.859375 -26.265625 23.734375 -25.828125 C 23.609375 -25.347656 23.4375 -24.84375 23.21875 -24.3125 C 22.738281 -23.039062 22.328125 -21.773438 21.984375 -20.515625 C 21.609375 -19.253906 21.320312 -18.019531 21.125 -16.8125 C 20.71875 -14.632812 20.578125 -12.742188 20.703125 -11.140625 C 20.828125 -9.492188 21.222656 -8.429688 21.890625 -7.953125 C 23.023438 -7.171875 24.492188 -7.597656 26.296875 -9.234375 C 28.128906 -10.847656 29.785156 -13 31.265625 -15.6875 C 32.085938 -17.101562 32.800781 -18.601562 33.40625 -20.1875 C 34 -21.789062 34.410156 -23.351562 34.640625 -24.875 C 34.953125 -26.957031 34.882812 -29.007812 34.4375 -31.03125 C 33.96875 -33.050781 33.164062 -34.851562 32.03125 -36.4375 C 31.644531 -36.9375 31.4375 -37.332031 31.40625 -37.625 C 31.40625 -37.90625 31.535156 -38.1875 31.796875 -38.46875 C 32.046875 -38.71875 32.3125 -38.828125 32.59375 -38.796875 C 32.875 -38.796875 33.160156 -38.6875 33.453125 -38.46875 C 34.015625 -38 34.675781 -37.003906 35.4375 -35.484375 C 36.132812 -34.035156 36.609375 -32.757812 36.859375 -31.65625 C 37.109375 -30.539062 37.25 -29.117188 37.28125 -27.390625 C 37.28125 -25.804688 37.171875 -24.460938 36.953125 -23.359375 C 36.765625 -22.253906 36.351562 -20.910156 35.71875 -19.328125 C 34.144531 -15.191406 32.15625 -11.796875 29.75 -9.140625 C 27.382812 -6.492188 25.128906 -5.148438 22.984375 -5.109375 C 22.285156 -5.109375 21.734375 -5.207031 21.328125 -5.40625 C 20.910156 -5.5625 20.453125 -5.875 19.953125 -6.34375 C 19.347656 -6.945312 18.921875 -7.660156 18.671875 -8.484375 C 18.410156 -9.304688 18.25 -10.550781 18.1875 -12.21875 C 18.1875 -12.851562 18.15625 -13.800781 18.09375 -15.0625 C 17.78125 -14.5 17.289062 -13.648438 16.625 -12.515625 C 14.570312 -9.003906 12.742188 -6.300781 11.140625 -4.40625 C 9.523438 -2.507812 7.941406 -1.210938 6.390625 -0.515625 C 5.890625 -0.296875 5.289062 -0.15625 4.59375 -0.09375 C 4.375 -0.0625 4.15625 -0.046875 3.9375 -0.046875 C 3.550781 -0.046875 3.21875 -0.09375 2.9375 -0.1875 Z M 2.9375 -0.1875 "/></g></g><g clip-rule="nonzero" clip-path="url(#5b1969b9ea)"><path style=" stroke:none;fill-rule:nonzero;fill:#000000;fill-opacity:1;" d="M 40.359375 97.433594 L 334.960938 97.433594 L 334.960938 104.90625 L 40.359375 104.90625 Z M 40.359375 97.433594 "/></g></g></svg>